<mxfile host="app.diagrams.net" modified="2023-10-19T13:05:51.723Z" agent="Mozilla/5.0 (X11; Ubuntu; Linux x86_64; rv:109.0) Gecko/20100101 Firefox/118.0" version="22.0.5" etag="i0I1IDA5uPZAWTwc2Jl6" type="github">
  <diagram name="Page-1" id="M6TXWpxXDyJWT_5660ZP">
    <mxGraphModel>
      <root>
        <mxCell id="0" />
        <mxCell id="1" parent="0" />
      </root>
    </mxGraphModel>
  </diagram>
</mxfile>
